<svg width="1360" height="768" viewBox="0 0 1360 768" fill="none" xmlns="http://www.w3.org/2000/svg">
<g clip-path="url(#clip0_2219_3177)">
<rect width="1360" height="768" fill="#F8F9FF"/>
<mask id="mask0_2219_3177" style="mask-type:alpha" maskUnits="userSpaceOnUse" x="928" y="-92" width="432" height="1088">
<rect x="1360" y="996" width="432" height="1088" transform="rotate(-180 1360 996)" fill="#D9D9D9"/>
</mask>
<g mask="url(#mask0_2219_3177)">
<g filter="url(#filter0_f_2219_3177)">
<ellipse cx="92.1058" cy="94.6545" rx="92.1058" ry="94.6545" transform="matrix(-0.999038 -0.0438522 0.0415182 -0.999138 1424.8 328.697)" fill="#00F4E2"/>
<ellipse cx="118.739" cy="122.024" rx="118.739" ry="122.024" transform="matrix(-0.999038 -0.0438522 0.0415182 -0.999138 1595.76 571.352)" fill="#00F4E2"/>
<ellipse cx="135.384" cy="139.131" rx="135.384" ry="139.131" transform="matrix(-0.999038 -0.0438522 0.0415182 -0.999138 1614.86 459.181)" fill="#00F4E2"/>
<ellipse cx="1422.03" cy="476.999" rx="80.7572" ry="83.0002" transform="rotate(-180 1422.03 476.999)" fill="#00F4E2"/>
</g>
</g>
<mask id="mask1_2219_3177" style="mask-type:alpha" maskUnits="userSpaceOnUse" x="0" y="-63" width="432" height="1088">
<rect y="-63" width="432" height="1088" fill="#D9D9D9"/>
</mask>
<g mask="url(#mask1_2219_3177)">
<g filter="url(#filter1_f_2219_3177)">
<ellipse cx="92.1051" cy="94.6542" rx="92.1051" ry="94.6542" transform="matrix(0.999038 0.0438523 -0.0415179 0.999138 -21.8027 604.302)" fill="#C333FF"/>
<ellipse cx="118.738" cy="122.024" rx="118.738" ry="122.024" transform="matrix(0.999038 0.0438523 -0.0415179 0.999138 -192.756 361.648)" fill="#C333FF"/>
<ellipse cx="135.383" cy="139.13" rx="135.383" ry="139.13" transform="matrix(0.999038 0.0438523 -0.0415179 0.999138 -211.855 473.819)" fill="#C333FF"/>
<ellipse cx="-19.0285" cy="456" rx="80.7566" ry="83" fill="#C333FF"/>
</g>
</g>
</g>
<defs>
<filter id="filter0_f_2219_3177" x="991.014" y="-114" width="923.986" height="1136" filterUnits="userSpaceOnUse" color-interpolation-filters="sRGB">
<feFlood flood-opacity="0" result="BackgroundImageFix"/>
<feBlend mode="normal" in="SourceGraphic" in2="BackgroundImageFix" result="shape"/>
<feGaussianBlur stdDeviation="120" result="effect1_foregroundBlur_2219_3177"/>
</filter>
<filter id="filter1_f_2219_3177" x="-512" y="-89" width="923.984" height="1136" filterUnits="userSpaceOnUse" color-interpolation-filters="sRGB">
<feFlood flood-opacity="0" result="BackgroundImageFix"/>
<feBlend mode="normal" in="SourceGraphic" in2="BackgroundImageFix" result="shape"/>
<feGaussianBlur stdDeviation="120" result="effect1_foregroundBlur_2219_3177"/>
</filter>
<clipPath id="clip0_2219_3177">
<rect width="1360" height="768" fill="white"/>
</clipPath>
</defs>
</svg>
